<svg xmlns="http://www.w3.org/2000/svg" width="174" height="47" viewBox="0 0 174 47" fill="none"><g clip-path="url(#clip0_3400_2440)"><path d="M129.281 46.9987C138.393 31.4653 147.508 15.9305 156.855 0C162.573 9.7395 168.123 19.1909 174.002 29.205C168.932 25.6471 164.068 26.5141 159.64 28.7958C153.79 31.8085 148.241 35.388 142.64 38.8463C138.242 41.5615 129.399 47.0929 129.283 47L129.281 46.9987Z" fill="url(#paint0_linear_3400_2440)"></path><path d="M30.5387 35.6075H23.3227V20.2289C23.3227 18.0293 22.8347 16.4112 21.8587 15.3773C20.8827 14.3435 19.3818 13.8266 17.3574 13.8266C15.7047 13.8266 14.1628 13.9073 12.733 14.0689V26.6757C12.733 28.8902 12.3749 30.6725 11.6613 32.0213C10.9464 33.3715 9.84467 34.3758 8.35471 35.0354C6.86475 35.695 5.19026 36.0248 3.32849 36.0248C2.06271 36.0248 0.952754 35.9144 0 35.695L0.626057 30.2834C1.19197 30.4005 1.73601 30.4598 2.25681 30.4598C3.38863 30.4598 4.21563 30.1004 4.73643 29.3815C5.25724 28.6626 5.51832 27.4376 5.51832 25.7078V14.707L2.01076 15.3235L2.7038 9.36134C6.59136 8.5846 11.5055 8.19556 17.4489 8.19556C21.7083 8.19556 24.9548 9.11903 27.1897 10.9673C29.4233 12.8156 30.5401 15.5429 30.5401 19.152V35.6089L30.5387 35.6075Z" fill="black"></path><path d="M43.2524 35.6074H36.1484V8.56836H43.2524V35.6074Z" fill="black"></path><path d="M66.0835 35.6073H59.0465L58.5995 27.2907C57.6905 27.6717 56.9387 28.1522 56.3427 28.7311C55.7467 29.3113 55.256 30.0692 54.8678 31.0088C54.481 31.9471 54.0777 33.4804 53.6608 35.6073H46.5117C47.3155 32.3954 48.1466 29.9198 49.0023 28.1819C49.858 26.444 51.013 25.0359 52.4647 23.9576C53.9164 22.8793 55.7454 21.9882 57.9489 21.2841L57.5019 17.3022C57.383 16.1727 56.9988 15.3812 56.3509 14.9262C55.703 14.4712 54.6341 14.2437 53.1455 14.2437H48.5662L49.437 8.56689H54.2622C57.7329 8.56689 60.2453 9.19421 61.8023 10.4475C63.3578 11.7021 64.2491 13.6635 64.4719 16.3329L66.0808 35.606L66.0835 35.6073Z" fill="black"></path><path d="M98.3208 22.2306C98.3208 26.6164 97.1397 30.0114 94.7804 32.417C92.4197 34.8226 89.0352 36.0247 84.6268 36.0247C80.2184 36.0247 76.8407 34.9141 74.4951 32.6916C72.1494 30.4691 70.9766 27.136 70.9766 22.6923V9.75564C73.6872 9.16872 75.9467 8.76217 77.7566 8.53467C79.5664 8.30717 81.4828 8.19409 83.5086 8.19409C88.4979 8.19409 92.2133 9.34506 94.656 11.6484C97.0987 13.9516 98.3194 17.4786 98.3194 22.2306H98.3208ZM90.994 22.209C90.994 19.2461 90.4021 17.1084 89.2183 15.7959C88.0346 14.4834 86.1769 13.8264 83.644 13.8264C81.6482 13.8264 79.8316 13.988 78.1926 14.3111V22.3854C78.1926 24.9956 78.7394 26.9879 79.8343 28.3583C80.9292 29.73 82.5258 30.4152 84.6268 30.4152C86.7278 30.4152 88.2943 29.7152 89.3742 28.3139C90.454 26.9139 90.994 24.8785 90.994 22.209Z" fill="black"></path><path d="M128.346 21.8563C128.346 26.6083 127.11 30.1581 124.637 32.5045C122.164 34.8508 118.367 36.0247 113.244 36.0247C109.505 36.0247 106.073 35.6141 102.945 34.793L104.017 29.2266C106.965 30.0047 109.624 30.3924 111.992 30.3924C115.179 30.3924 117.476 29.7354 118.884 28.4229C120.292 27.1104 120.994 24.9794 120.994 22.0313C120.994 19.0832 120.407 16.8472 119.23 15.5845C118.053 14.3232 116.102 13.6932 113.376 13.6932C112.439 13.6932 111.381 13.7739 110.204 13.9355V18.7763H113.554L112.638 24.4086H102.988V9.4918C106.279 8.62621 109.861 8.19409 113.733 8.19409C118.826 8.19409 122.535 9.29122 124.859 11.4828C127.182 13.6757 128.344 17.134 128.344 21.8563H128.346Z" fill="black"></path></g><defs><linearGradient id="paint0_linear_3400_2440" x1="152.041" y1="-1.11597" x2="151.636" y2="39.8479" gradientUnits="userSpaceOnUse"><stop stop-color="#393981"></stop><stop offset="0.26" stop-color="#32327C"></stop><stop offset="0.64" stop-color="#1F1F71"></stop><stop offset="1" stop-color="#070762"></stop></linearGradient><clipPath id="clip0_3400_2440"><rect width="174" height="47" fill="white"></rect></clipPath></defs></svg>