<svg width="116" height="40" viewBox="0 0 116 40" fill="none" xmlns="http://www.w3.org/2000/svg">
<g id="logo" clip-path="url(#clip0_941_15655)">
<path id="Vector" d="M42.6681 29.2429C45.7293 29.2429 46.976 30.434 46.976 33.4106V37.7474H44.9924V33.4106C44.9924 31.723 44.3267 30.9305 42.6392 30.9305H41.221V35.6502C41.221 37.1663 40.3283 37.832 39.1795 37.832C38.6118 37.832 37.7903 37.734 37.3784 37.5782L37.6344 36.0042C37.8749 36.0888 38.1598 36.1467 38.5428 36.1467C39.066 36.1467 39.2663 35.8484 39.2663 35.0692V30.9305H38.1754V29.2429H42.6681Z" fill="#FF5A23"/>
<path id="Vector_2" d="M50.4368 29.2429H48.4531V37.7474H50.4368V29.2429Z" fill="#FF5A23"/>
<g id="Group">
<path id="Vector_3" d="M57.4592 29.2432H59.4428V32.1774C59.4428 35.8486 57.9267 38.1016 51.7465 38.371L51.604 36.7414C52.3699 36.6701 53.0355 36.5855 53.6322 36.5009L51.6752 29.2432H53.7301L55.5156 36.0044C56.9471 35.41 57.4569 34.3458 57.4569 32.1774V29.2432H57.4592Z" fill="#FF5A23"/>
<path id="Vector_4" d="M62.82 32.8142V40.0007H60.892V33.0546L62.82 32.8142ZM60.8208 29.2432H68.8577V34.1054C68.8577 37.0241 67.4396 37.8478 65.7543 37.8478C65.1176 37.8478 64.5922 37.7766 64.04 37.6074L64.2671 35.9644C64.65 36.0779 65.0597 36.1625 65.4715 36.1625C66.4778 36.1625 66.9454 35.7239 66.9454 33.9229V30.9329H60.823V29.2454L60.8208 29.2432Z" fill="#FF5A23"/>
</g>
<g id="Group_2">
<path id="Vector_5" d="M76.1599 29.2424V34.0045L74.1763 34.4008V29.2424H76.1599ZM78.286 29.2424H80.2696V32.927C80.2696 36.1017 78.3995 37.9295 75.167 37.9295C71.9344 37.9295 70.0776 36.1017 70.0776 32.927V29.2424H72.0613V32.9848C72.0613 35.0553 73.21 36.2308 75.167 36.2308C77.1239 36.2308 78.286 35.0531 78.286 32.9848V29.2424Z" fill="#FF5A23"/>
<path id="Vector_6" d="M81.581 33.297L83.5646 33.0277V37.7474H81.581V33.297ZM81.5098 29.243H85.054C88.0595 29.243 89.4198 30.6032 89.4198 33.7067V37.7452H87.4362V33.7067C87.4362 31.7498 86.7416 30.9283 85.054 30.9283H81.5098V29.2407V29.243Z" fill="#FF5A23"/>
<path id="Vector_7" d="M99.1627 29.2432C102.224 29.2432 103.471 30.4342 103.471 33.4108V37.7476H101.487V33.4108C101.487 31.7233 100.821 30.9307 99.1338 30.9307H97.7156V35.6505C97.7156 37.1666 96.8229 37.8322 95.6741 37.8322C95.1064 37.8322 94.2849 37.7343 93.873 37.5784L94.1291 36.0044C94.3695 36.089 94.6545 36.1469 95.0374 36.1469C95.5606 36.1469 95.7609 35.8486 95.7609 35.0694V30.9307H94.6701V29.2432H99.1627Z" fill="#FF5A23"/>
</g>
<path id="Vector_8" d="M104.601 29.2429H106.585V34.0473L104.601 34.359V29.2429Z" fill="#FF5A23"/>
<g id="Group_3">
<path id="Vector_9" d="M114.868 36.0594H115.946V37.747H107.782V36.0594H112.884V33.4101C112.884 31.7938 112.148 30.7586 110.687 30.7586C109.765 30.7586 108.931 31.0992 108.207 31.4955L107.555 30.0217C108.661 29.385 109.837 29.071 110.999 29.071C113.719 29.071 114.868 30.5738 114.868 33.2676V36.0594Z" fill="#FF5A23"/>
<path id="Vector_10" d="M41.6009 15.3345H37.3442V19.5644C37.3442 22.4052 38.936 24.1039 41.6009 24.1039C44.2658 24.1039 45.871 22.3651 45.871 19.5644C45.871 16.7638 44.3548 15.3345 41.6009 15.3345ZM43.7426 19.5644C43.7426 21.2587 42.9412 22.2672 41.6009 22.2672C40.2607 22.2672 39.4726 21.2809 39.4726 19.5644V17.1689H41.6009C43.0213 17.1689 43.7426 17.9749 43.7426 19.5644Z" fill="white"/>
<path id="Vector_11" d="M47.0799 17.1714H53.1554V20.0589C53.1554 21.86 52.6701 22.2006 51.7729 22.2006C51.4234 22.2006 51.0404 22.1383 50.5996 22.0069L50.5106 21.9802L50.2635 23.7724L50.328 23.7924C50.8735 23.9616 51.4056 24.0351 52.0534 24.0351C54.1484 24.0351 55.2125 22.7594 55.2125 20.2415V15.3369H47.0776V17.1714H47.0799Z" fill="white"/>
</g>
<path id="Vector_12" d="M47.1511 26.1702H49.2238V18.8701L47.1511 19.1284V26.1702Z" fill="white"/>
<path id="Vector_13" d="M56.4927 20.5865L58.6232 20.2526V15.3369H56.4927V20.5865Z" fill="white"/>
<g id="Group_4">
<path id="Vector_14" d="M61.2573 15.3372H59.897V17.1716H60.654C61.3397 17.1716 61.5712 17.4878 61.5712 18.4273V22.1007H59.6299V23.9351H63.6996V17.893C63.6996 16.1253 62.9471 15.3372 61.2573 15.3372Z" fill="white"/>
<path id="Vector_15" d="M68.8664 15.1812C66.4575 15.1812 64.9614 16.3544 64.9614 18.2423C64.9614 18.9993 65.2486 19.6649 65.7896 20.1658C66.4842 20.8092 67.5328 21.112 68.7484 21.023L68.8196 21.0185L68.8819 19.3399L68.7929 19.3466C68.174 19.3866 67.6909 19.2597 67.3948 18.9815C67.1944 18.7922 67.092 18.5451 67.092 18.2445C67.092 17.4587 67.7554 16.9889 68.8686 16.9889C70.2801 16.9889 71.1928 17.9997 71.1928 19.567C71.1928 21.2434 70.1888 22.2853 68.5747 22.2853C67.6285 22.2853 66.7536 22.1317 65.9744 21.8267L65.8942 21.7955L65.3533 23.4652L65.42 23.4942C66.3417 23.8905 67.4104 24.0908 68.6014 24.0908C71.558 24.0908 73.3234 22.3988 73.3234 19.567C73.3234 16.7351 71.6181 15.1834 68.8686 15.1834" fill="white"/>
<path id="Vector_16" d="M78.1502 15.3372H74.5547V17.1716H78.1502C79.7709 17.1716 80.4321 17.9464 80.4321 19.8477V23.9374H82.5627V19.8477C82.5627 16.7286 81.2024 15.3372 78.1524 15.3372" fill="white"/>
</g>
<path id="Vector_17" d="M74.6235 23.9349H76.7541V19.0793L74.6235 19.3688V23.9349Z" fill="white"/>
<path id="Vector_18" d="M35.138 0.019771C24.69 -0.438848 15.4954 7.23077 14.2309 17.7834C14.2108 17.966 14.0216 18.0617 13.8279 17.9126C13.0287 17.2914 11.448 16.1716 10.0966 15.6262C10.0944 15.6262 10.0944 15.6195 10.0966 15.6195C10.8001 15.3501 11.3634 14.6844 11.5348 13.952C11.6906 13.2974 11.3478 12.8321 10.6554 13.0615C8.89887 13.647 7.05327 13.716 5.21657 13.7516C4.28598 13.7716 3.35316 13.7627 2.42256 13.7494C1.96617 13.7427 1.5031 13.7115 1.04671 13.736C-0.184431 13.7984 0.0693676 14.838 0.761746 14.9694C1.34058 15.0785 1.91274 15.2165 2.47822 15.3813C3.07487 15.5549 3.88079 15.8399 4.47299 16.0981C6.50337 16.9397 8.38682 18.1218 10.0343 19.5756C10.0343 19.5756 10.0387 19.5756 10.0387 19.5801C11.566 20.927 12.8684 22.5188 13.9414 24.2509C14.5025 25.157 15.0167 26.4415 15.4353 27.459C15.5065 27.6415 15.6846 28.0757 15.6958 28.1001C18.2471 34.0733 23.6192 38.6617 30.3403 39.9886C30.6342 40.0465 30.9125 39.8461 30.9481 39.55C30.9748 39.3318 30.8568 39.1248 30.6587 39.0313C23.0314 35.4158 18.2026 27.2297 19.2623 18.3868C20.3265 9.54612 26.9541 2.73364 35.2204 1.02383C35.4363 0.979308 35.5989 0.805656 35.6256 0.587478C35.6612 0.29138 35.4341 0.0309025 35.138 0.0175447" fill="#FF5A23"/>
<path id="Vector_19" d="M33.8649 7.04155C36.4318 6.98144 38.8073 7.70721 40.7887 8.98288C41.0002 9.11646 41.0068 9.42369 40.7998 9.56618L40.7864 9.57731C40.7107 9.63074 40.6172 9.64855 40.526 9.63297C39.8002 9.49493 39.0566 9.40588 38.2952 9.37694C30.6635 9.07862 24.1404 14.5108 22.867 21.8353C22.8514 21.9266 22.8002 22.009 22.7245 22.0624C22.5174 22.2049 22.2325 22.0914 22.1813 21.8465C21.9386 20.6999 21.8562 19.4999 21.9586 18.2666C22.4774 12.073 27.6535 7.19071 33.8671 7.046" fill="white"/>
</g>
<defs>
<clipPath id="clip0_941_15655">
<rect width="115.761" height="40" fill="white" transform="translate(0.185059)"/>
</clipPath>
</defs>
</svg>
